<svg  version="1.1" xmlns="http://www.w3.org/2000/svg" xmlns:xlink="http://www.w3.org/1999/xlink" width="22" height="22" viewBox="0 0 22 22">
<path id="search-icon" d="M21.384,18.418 C21.384,18.418 16.872,13.894 16.872,13.894 C17.763,12.453 18.233,10.804 18.233,9.109 C18.233,4.080 14.146,-0.010 9.123,-0.010 C4.101,-0.010 0.015,4.080 0.015,9.109 C0.015,14.137 4.101,18.227 9.123,18.227 C10.818,18.227 12.465,17.758 13.903,16.865 C13.903,16.865 18.415,21.391 18.415,21.391 C18.812,21.787 19.338,22.005 19.900,22.005 C20.461,22.005 20.989,21.786 21.384,21.390 C22.202,20.571 22.202,19.238 21.384,18.418 zM9.124,2.105 C12.981,2.105 16.119,5.247 16.119,9.109 C16.119,12.970 12.981,16.113 9.124,16.113 C5.266,16.113 2.128,12.970 2.128,9.109 C2.128,5.247 5.266,2.105 9.124,2.105 z" fill="#3C3C3C" />
</svg>
